<?xml version="1.0" standalone="no"?>
<!DOCTYPE svg PUBLIC "-//W3C//DTD SVG 20010904//EN"
 "http://www.w3.org/TR/2001/REC-SVG-20010904/DTD/svg10.dtd">
<svg version="1.0" xmlns="http://www.w3.org/2000/svg"
 width="700.000000pt" height="700.000000pt" viewBox="0 0 700.000000 700.000000"
 preserveAspectRatio="xMidYMid meet">
<metadata>
Created by potrace 1.11, written by Peter Selinger 2001-2013
</metadata>
<g transform="translate(0.000000,700.000000) scale(0.100000,-0.100000)"
fill="#000000" stroke="none">
<path d="M2437 6034 c-1 -1 -38 -4 -82 -8 -284 -21 -587 -104 -845 -230 -133
-65 -301 -167 -375 -228 -311 -253 -474 -452 -614 -750 -38 -80 -100 -241
-106 -278 -1 -3 -9 -39 -18 -80 -37 -158 -45 -243 -42 -420 2 -96 6 -191 9
-210 39 -235 86 -382 183 -575 114 -227 291 -449 503 -630 22 -19 53 -66 84
-130 138 -285 346 -528 641 -749 50 -37 101 -76 115 -87 13 -10 27 -19 31 -19
4 0 5 37 2 83 -6 104 -6 376 1 402 2 11 5 26 5 34 1 9 9 11 29 7 81 -20 125
-9 161 43 28 39 28 100 0 135 -19 24 -68 56 -86 56 -14 1 -86 21 -182 51 -51
16 -96 28 -98 25 -3 -2 -9 -22 -14 -43 -5 -21 -11 -45 -13 -53 -15 -59 -36
-173 -36 -194 0 -42 -15 -38 -66 17 -53 58 -61 68 -117 142 -20 28 -41 55 -47
62 -23 28 -133 235 -155 293 -13 35 -36 61 -106 120 -244 204 -430 472 -523
752 -61 181 -84 333 -81 517 6 253 61 472 174 686 60 114 80 145 162 253 325
425 856 705 1439 758 81 7 340 7 405 0 124 -14 158 -20 244 -38 51 -11 101
-21 110 -23 40 -8 220 -69 289 -99 61 -25 85 -31 115 -26 90 16 130 116 76
189 -16 22 -51 42 -133 75 -214 85 -442 140 -676 162 -59 6 -358 12 -363 8z"/>
<path d="M3965 5604 c-153 -20 -172 -23 -290 -49 -162 -37 -335 -93 -460 -150
-134 -60 -171 -79 -250 -125 -231 -134 -471 -333 -610 -505 -22 -27 -48 -59
-58 -70 -49 -53 -166 -243 -222 -360 -69 -142 -114 -267 -144 -396 -19 -81
-24 -106 -41 -229 -4 -30 -7 -126 -7 -212 0 -135 5 -200 32 -353 47 -277 206
-612 413 -870 218 -271 554 -520 902 -668 163 -69 407 -143 535 -162 22 -3 65
-10 95 -15 30 -5 73 -12 95 -16 65 -9 505 -13 570 -4 33 5 87 11 120 15 32 4
62 8 66 11 4 2 22 6 40 8 59 8 171 34 254 60 44 13 83 21 87 17 5 -4 12 -31
18 -61 6 -30 12 -64 14 -75 10 -55 19 -160 20 -245 1 -52 5 -97 8 -100 15 -12
228 183 328 300 30 36 57 67 60 70 13 11 108 149 139 200 58 94 83 142 121
226 31 71 45 89 110 145 411 352 657 790 727 1294 15 112 8 441 -12 535 -3 14
-8 43 -11 65 -9 60 -71 258 -110 354 -198 478 -593 882 -1099 1125 -361 174
-730 254 -1155 253 -107 -1 -235 -7 -285 -13z m383 -541 c56 -40 62 -69 62
-284 l0 -196 43 -12 c72 -21 164 -72 221 -123 55 -49 146 -173 146 -200 0 -8
4 -18 9 -23 15 -18 41 -131 46 -205 4 -60 1 -82 -15 -115 -26 -53 -79 -84
-136 -80 -82 6 -129 62 -137 160 -7 83 -21 132 -56 187 -115 181 -407 184
-529 5 -42 -62 -56 -112 -57 -207 0 -103 15 -149 65 -199 45 -45 108 -76 245
-121 306 -101 394 -145 488 -245 114 -119 160 -318 120 -518 -41 -207 -202
-387 -395 -445 l-58 -17 0 -195 c0 -219 -6 -245 -69 -287 -67 -45 -166 -20
-201 51 -18 38 -20 61 -20 237 l0 194 -60 19 c-149 46 -286 167 -348 307 -54
119 -76 267 -49 330 42 102 179 122 246 37 22 -27 27 -47 35 -123 14 -130 65
-208 171 -263 44 -23 62 -27 150 -27 85 0 107 3 148 24 108 53 169 153 173
285 5 182 -53 238 -338 331 -265 86 -372 142 -466 244 -149 161 -172 480 -51
706 65 121 206 234 347 277 l42 13 0 195 c0 220 6 245 70 288 28 19 44 23 83
19 27 -2 61 -13 75 -24z"/>
</g>
</svg>
